<svg width="24" height="24" viewBox="0 0 24 24" fill="none" xmlns="http://www.w3.org/2000/svg">
<path d="M12.0175 4.04626C9.12127 4.04626 6.76752 6.40001 6.76752 9.29626V11.825C6.76752 12.3588 6.54002 13.1725 6.26877 13.6275L5.26252 15.2988C4.64127 16.3313 5.07002 17.4775 6.20752 17.8625C9.97877 19.1225 14.0475 19.1225 17.8188 17.8625C18.8775 17.5125 19.3413 16.2613 18.7638 15.2988L17.7575 13.6275C17.495 13.1725 17.2675 12.3588 17.2675 11.825V9.29626C17.2675 6.40876 14.905 4.04626 12.0175 4.04626Z" stroke="#858686" stroke-width="1.5" stroke-miterlimit="10" stroke-linecap="round"/>
<path d="M13.6363 4.30001C13.3651 4.22126 13.0851 4.16001 12.7963 4.12501C11.9563 4.02001 11.1513 4.08126 10.3988 4.30001C10.6526 3.65251 11.2826 3.19751 12.0176 3.19751C12.7526 3.19751 13.3826 3.65251 13.6363 4.30001Z" stroke="#858686" stroke-width="1.5" stroke-miterlimit="10" stroke-linecap="round" stroke-linejoin="round"/>
<path d="M14.6425 18.1775C14.6425 19.6212 13.4612 20.8025 12.0175 20.8025C11.3 20.8025 10.635 20.505 10.1625 20.0325C9.68996 19.56 9.39246 18.895 9.39246 18.1775" stroke="#858686" stroke-width="1.5" stroke-miterlimit="10"/>
</svg>
