<svg width="32" height="32" viewBox="0 0 32 32" fill="none" xmlns="http://www.w3.org/2000/svg">
<circle cx="16" cy="16" r="15.25" stroke="#496EF6" stroke-width="1.5"/>
<path d="M14.375 17.2188H17.625V16H14.375V17.2188ZM14.375 15.1875H20.0625V13.9688H14.375V15.1875ZM14.375 13.1562H20.0625V11.9375H14.375V13.1562ZM13.1562 20.0625C12.8177 20.0625 12.5301 19.9439 12.2934 19.7066C12.0561 19.4699 11.9375 19.1823 11.9375 18.8438V10.7188C11.9375 10.3802 12.0561 10.0926 12.2934 9.85587C12.5301 9.61862 12.8177 9.5 13.1562 9.5H21.2812C21.6198 9.5 21.9074 9.61862 22.1441 9.85587C22.3814 10.0926 22.5 10.3802 22.5 10.7188V18.8438C22.5 19.1823 22.3814 19.4699 22.1441 19.7066C21.9074 19.9439 21.6198 20.0625 21.2812 20.0625H13.1562ZM10.7188 22.5C10.3802 22.5 10.0926 22.3814 9.85587 22.1441C9.61862 21.9074 9.5 21.6198 9.5 21.2812V11.9375H10.7188V21.2812H20.0625V22.5H10.7188Z" fill="#496EF6"/>
</svg>
