<svg width="32" height="32" viewBox="0 0 32 32" fill="none" xmlns="http://www.w3.org/2000/svg">
<path d="M10.6468 27.9225C5.74531 25.1601 4.45486 22.5454 5.19265 18.9742C5.73732 16.3373 7.52081 14.1919 7.69182 11.56C8.45367 12.9464 8.77201 13.9461 8.85713 15.395C11.2802 12.4262 12.8814 8.31644 12.9762 3.99939C12.9762 3.99939 19.2875 7.70767 19.7016 13.3091C20.2449 12.1545 20.5184 10.3208 19.9751 9.13242C21.605 10.3209 31.1451 20.8715 18.6829 27.9225C21.0259 23.3604 19.2873 17.2047 15.2192 14.3617C15.4909 15.5842 15.0146 20.1436 13.2148 22.147C13.7135 18.7995 12.7404 17.384 12.7404 17.384C12.7404 17.384 12.4064 19.259 11.1104 21.1532C9.92704 22.8828 9.10707 24.7186 10.6468 27.9225V27.9225Z" fill="white"/>
</svg>
