<svg width="24" height="24" viewBox="0 0 24 24" fill="none" xmlns="http://www.w3.org/2000/svg">
<path fill-rule="evenodd" clip-rule="evenodd" d="M16.8536 15.3536L14.3536 17.8536C14.1583 18.0488 13.8417 18.0488 13.6464 17.8536L12.1464 16.3536L12.8536 15.6464L14 16.7929L16.1464 14.6464L16.8536 15.3536ZM8 2.5C8.27614 2.5 8.5 2.72386 8.5 3V4.5H15.5V3C15.5 2.72386 15.7239 2.5 16 2.5C16.2761 2.5 16.5 2.72386 16.5 3V4.5H19C20.3807 4.5 21.5 5.61929 21.5 7V19C21.5 20.3807 20.3807 21.5 19 21.5H5C3.61929 21.5 2.5 20.3807 2.5 19V7C2.5 5.61929 3.61929 4.5 5 4.5H7.5V3C7.5 2.72386 7.72386 2.5 8 2.5ZM7 10.5C6.72386 10.5 6.5 10.7239 6.5 11C6.5 11.2761 6.72386 11.5 7 11.5H17C17.2761 11.5 17.5 11.2761 17.5 11C17.5 10.7239 17.2761 10.5 17 10.5H7Z" fill="white"/>
</svg>
