<svg width="24" height="24" viewBox="0 0 24 24" fill="none" xmlns="http://www.w3.org/2000/svg">
<path d="M2.5 8.77778C2.5 7.61184 3.44518 6.66667 4.61111 6.66667H5.59239C6.29825 6.66667 6.9574 6.3139 7.34894 5.72659L8.20662 4.44008C8.59815 3.85277 9.25731 3.5 9.96317 3.5H14.0368C14.7427 3.5 15.4018 3.85277 15.7934 4.44008L16.6511 5.72659C17.0426 6.3139 17.7018 6.66667 18.4076 6.66667H19.3889C20.5548 6.66667 21.5 7.61184 21.5 8.77778V18.2778C21.5 19.4437 20.5548 20.3889 19.3889 20.3889H4.61111C3.44518 20.3889 2.5 19.4437 2.5 18.2778V8.77778Z" stroke="white" stroke-linecap="round" stroke-linejoin="round"/>
<path d="M15.1667 13C15.1667 14.7489 13.7489 16.1667 12 16.1667C10.2511 16.1667 8.83333 14.7489 8.83333 13C8.83333 11.2511 10.2511 9.83333 12 9.83333C13.7489 9.83333 15.1667 11.2511 15.1667 13Z" stroke="white" stroke-linecap="round" stroke-linejoin="round"/>
</svg>
