<svg width="32" height="32" viewBox="0 0 32 32" fill="none" xmlns="http://www.w3.org/2000/svg">
<path fill-rule="evenodd" clip-rule="evenodd" d="M6.39995 7.99999C4.63264 7.99999 3.19995 9.43268 3.19995 11.2V24C3.19995 25.7673 4.63264 27.2 6.39995 27.2H25.6C27.3673 27.2 28.8 25.7673 28.8 24V11.2C28.8 9.43268 27.3673 7.99999 25.6 7.99999H23.0627C22.6383 7.99999 22.2314 7.83142 21.9313 7.53136L20.1372 5.73725C19.5371 5.13713 18.7232 4.79999 17.8745 4.79999H14.1254C13.2767 4.79999 12.4628 5.13713 11.8627 5.73725L10.0686 7.53136C9.76852 7.83142 9.36156 7.99999 8.93721 7.99999H6.39995ZM16 22.4C18.6509 22.4 20.8 20.251 20.8 17.6C20.8 14.949 18.6509 12.8 16 12.8C13.349 12.8 11.2 14.949 11.2 17.6C11.2 20.251 13.349 22.4 16 22.4Z" fill="white"/>
</svg>
