<svg width="24" height="24" viewBox="0 0 24 24" fill="none" xmlns="http://www.w3.org/2000/svg">
<path fill-rule="evenodd" clip-rule="evenodd" d="M9.96317 3C9.09013 3 8.27486 3.43632 7.79059 4.16273L6.93292 5.44924C6.63411 5.89745 6.13107 6.16667 5.59239 6.16667H4.61111C3.16903 6.16667 2 7.3357 2 8.77778V18.2778C2 19.7199 3.16903 20.8889 4.61111 20.8889H19.3889C20.831 20.8889 22 19.7199 22 18.2778V8.77778C22 7.3357 20.831 6.16667 19.3889 6.16667H18.4076C17.8689 6.16667 17.3659 5.89745 17.0671 5.44924L16.2094 4.16273C15.7251 3.43632 14.9099 3 14.0368 3H9.96317ZM8.83325 13C8.83325 11.2511 10.251 9.83331 11.9999 9.83331C13.7488 9.83331 15.1666 11.2511 15.1666 13C15.1666 14.7489 13.7488 16.1666 11.9999 16.1666C10.251 16.1666 8.83325 14.7489 8.83325 13ZM11.9999 8.83331C9.69873 8.83331 7.83325 10.6988 7.83325 13C7.83325 15.3012 9.69873 17.1666 11.9999 17.1666C14.3011 17.1666 16.1666 15.3012 16.1666 13C16.1666 10.6988 14.3011 8.83331 11.9999 8.83331Z" fill="white"/>
</svg>
