<svg width="20" height="20" viewBox="0 0 20 20" fill="none" xmlns="http://www.w3.org/2000/svg">
<path fill-rule="evenodd" clip-rule="evenodd" d="M3 5.75V17.562C3 17.9507 3.18033 18.218 3.541 18.364C3.90233 18.51 4.222 18.444 4.5 18.166L6.333 16.333H15.916C16.402 16.333 16.8153 16.163 17.156 15.823C17.496 15.4823 17.666 15.069 17.666 14.583V5.75C17.666 5.264 17.496 4.85067 17.156 4.51C16.8153 4.17 16.402 4 15.916 4H4.75C4.264 4 3.85067 4.17 3.51 4.51C3.17 4.85067 3 5.264 3 5.75ZM7 8.75C7 8.33579 7.33579 8 7.75 8H13.25C13.6642 8 14 8.33579 14 8.75C14 9.16421 13.6642 9.5 13.25 9.5H7.75C7.33579 9.5 7 9.16421 7 8.75ZM7.75 11C7.33579 11 7 11.3358 7 11.75C7 12.1642 7.33579 12.5 7.75 12.5H13.25C13.6642 12.5 14 12.1642 14 11.75C14 11.3358 13.6642 11 13.25 11H7.75Z" fill="#A2A3A3"/>
</svg>
