<svg width="24" height="24" viewBox="0 0 24 24" fill="none" xmlns="http://www.w3.org/2000/svg">
<path fill-rule="evenodd" clip-rule="evenodd" d="M8.2 18.65H8.675C8.9315 18.65 9.283 18.821 9.435 19.03L10.86 20.93C11.487 21.766 12.513 21.766 13.14 20.93L14.565 19.03C14.7455 18.7925 15.0305 18.65 15.325 18.65H15.8C19.6 18.65 21.5 16.75 21.5 12.95V8.2C21.5 4.4 19.6 2.5 15.8 2.5H8.2C4.4 2.5 2.5 4.4 2.5 8.2V12.95C2.5 17.7 4.4 18.65 8.2 18.65ZM15.7967 10.05C15.2444 10.05 14.7967 10.4977 14.7967 11.05C14.7967 11.6023 15.2444 12.05 15.7967 12.05H15.8052C16.3575 12.05 16.8052 11.6023 16.8052 11.05C16.8052 10.4977 16.3575 10.05 15.8052 10.05H15.7967ZM10.9957 11.05C10.9957 10.4977 11.4434 10.05 11.9957 10.05H12.0042C12.5565 10.05 13.0042 10.4977 13.0042 11.05C13.0042 11.6023 12.5565 12.05 12.0042 12.05H11.9957C11.4434 12.05 10.9957 11.6023 10.9957 11.05ZM8.19464 10.05C7.64235 10.05 7.19464 10.4977 7.19464 11.05C7.19464 11.6023 7.64235 12.05 8.19464 12.05H8.20317C8.75545 12.05 9.20317 11.6023 9.20317 11.05C9.20317 10.4977 8.75545 10.05 8.20317 10.05H8.19464Z" fill="white"/>
</svg>
