<svg width="24" height="24" viewBox="0 0 24 24" fill="none" xmlns="http://www.w3.org/2000/svg">
<path fill-rule="evenodd" clip-rule="evenodd" d="M13.7688 18.4249L13.7688 18.4249L13.765 18.43L12.34 20.33C12.1876 20.5332 12.055 20.557 12 20.557C11.945 20.557 11.8124 20.5332 11.66 20.33L10.2383 18.4344C10.0385 18.1631 9.76723 17.9791 9.53833 17.8657C9.30587 17.7504 9.00034 17.65 8.675 17.65H8.2C6.31768 17.65 5.23348 17.3974 4.5835 16.8287C3.96656 16.2888 3.5 15.2388 3.5 12.95V8.2C3.5 6.45414 3.93579 5.32843 4.63211 4.63211C5.32843 3.93579 6.45414 3.5 8.2 3.5H15.8C17.5459 3.5 18.6716 3.93579 19.3679 4.63211C20.0642 5.32843 20.5 6.45414 20.5 8.2V12.95C20.5 14.6959 20.0642 15.8216 19.3679 16.5179C18.6716 17.2142 17.5459 17.65 15.8 17.65H15.325C14.7133 17.65 14.1356 17.9424 13.7688 18.4249ZM10.86 20.93L9.435 19.03C9.283 18.821 8.9315 18.65 8.675 18.65H8.2C4.4 18.65 2.5 17.7 2.5 12.95V8.2C2.5 4.4 4.4 2.5 8.2 2.5H15.8C19.6 2.5 21.5 4.4 21.5 8.2V12.95C21.5 16.75 19.6 18.65 15.8 18.65H15.325C15.0305 18.65 14.7455 18.7925 14.565 19.03L13.14 20.93C12.513 21.766 11.487 21.766 10.86 20.93ZM15.7966 10.05C15.2443 10.05 14.7966 10.4977 14.7966 11.05C14.7966 11.6023 15.2443 12.05 15.7966 12.05H15.8051C16.3574 12.05 16.8051 11.6023 16.8051 11.05C16.8051 10.4977 16.3574 10.05 15.8051 10.05H15.7966ZM10.9957 11.05C10.9957 10.4977 11.4435 10.05 11.9957 10.05H12.0043C12.5566 10.05 13.0043 10.4977 13.0043 11.05C13.0043 11.6023 12.5566 12.05 12.0043 12.05H11.9957C11.4435 12.05 10.9957 11.6023 10.9957 11.05ZM8.19473 10.05C7.64245 10.05 7.19473 10.4977 7.19473 11.05C7.19473 11.6023 7.64245 12.05 8.19473 12.05H8.20326C8.75555 12.05 9.20326 11.6023 9.20326 11.05C9.20326 10.4977 8.75555 10.05 8.20326 10.05H8.19473Z" fill="white"/>
</svg>
