<svg width="24" height="24" viewBox="0 0 24 24" fill="none" xmlns="http://www.w3.org/2000/svg">
<path fill-rule="evenodd" clip-rule="evenodd" d="M5.24262 2.5C3.72791 2.5 2.5 3.72791 2.5 5.24262V14.2131C2.5 15.7278 3.72791 16.9557 5.24262 16.9557H6.98525V18.6984C6.98525 20.2131 8.21316 21.441 9.72787 21.441H18.6984C20.2131 21.441 21.441 20.2131 21.441 18.6984V9.72787C21.441 8.21316 20.2131 6.98525 18.6984 6.98525H16.9557V5.24262C16.9557 3.72791 15.7278 2.5 14.2131 2.5H5.24262ZM7.98525 18.6984V16.4557V9.72787C7.98525 8.76544 8.76544 7.98525 9.72787 7.98525H16.4557H18.6984C19.6608 7.98525 20.441 8.76544 20.441 9.72787V18.6984C20.441 19.6608 19.6608 20.441 18.6984 20.441H9.72787C8.76544 20.441 7.98525 19.6608 7.98525 18.6984ZM9.72787 6.98525H15.9557V5.24262C15.9557 4.2802 15.1755 3.5 14.2131 3.5H5.24262C4.2802 3.5 3.5 4.2802 3.5 5.24262V14.2131C3.5 15.1755 4.2802 15.9557 5.24262 15.9557H6.98525V9.72787C6.98525 8.21316 8.21316 6.98525 9.72787 6.98525ZM10.2885 10.8492C9.97884 10.8492 9.72783 11.1002 9.72783 11.4098C9.72783 11.7195 9.97885 11.9705 10.2885 11.9705H14.7737C15.0834 11.9705 15.3344 11.7195 15.3344 11.4098C15.3344 11.1002 15.0834 10.8492 14.7737 10.8492H10.2885ZM9.72783 15.8951C9.72783 15.5855 9.97884 15.3345 10.2885 15.3345H12.5311C12.8408 15.3345 13.0918 15.5855 13.0918 15.8951C13.0918 16.2048 12.8408 16.4558 12.5311 16.4558H10.2885C9.97884 16.4558 9.72783 16.2048 9.72783 15.8951ZM10.2885 13.0918C9.97884 13.0918 9.72783 13.3428 9.72783 13.6525C9.72783 13.9621 9.97884 14.2131 10.2885 14.2131H17.0164C17.326 14.2131 17.577 13.9621 17.577 13.6525C17.577 13.3428 17.326 13.0918 17.0164 13.0918H10.2885Z" fill="white"/>
</svg>
