<svg width="24" height="24" viewBox="0 0 24 24" fill="none" xmlns="http://www.w3.org/2000/svg">
<path fill-rule="evenodd" clip-rule="evenodd" d="M9.72787 21.441C8.21316 21.441 6.98525 20.2131 6.98525 18.6984V17.9557V16.9557H5.98525H5.24262C3.72791 16.9557 2.5 15.7278 2.5 14.2131V5.24262C2.5 3.72791 3.72791 2.5 5.24262 2.5H14.2131C15.7278 2.5 16.9557 3.72791 16.9557 5.24262V5.98525V6.98525H17.9557H18.6984C20.2131 6.98525 21.441 8.21316 21.441 9.72787V18.6984C21.441 20.2131 20.2131 21.441 18.6984 21.441H9.72787ZM10.2884 10.8492C9.9788 10.8492 9.72778 11.1002 9.72778 11.4098C9.72778 11.7195 9.9788 11.9705 10.2884 11.9705H14.7737C15.0833 11.9705 15.3343 11.7195 15.3343 11.4098C15.3343 11.1002 15.0833 10.8492 14.7737 10.8492H10.2884ZM9.72778 15.8951C9.72778 15.5855 9.9788 15.3345 10.2884 15.3345H12.5311C12.8407 15.3345 13.0917 15.5855 13.0917 15.8951C13.0917 16.2048 12.8407 16.4558 12.5311 16.4558H10.2884C9.9788 16.4558 9.72778 16.2048 9.72778 15.8951ZM10.2884 13.0918C9.9788 13.0918 9.72778 13.3428 9.72778 13.6525C9.72778 13.9621 9.9788 14.2131 10.2884 14.2131H17.0163C17.3259 14.2131 17.577 13.9621 17.577 13.6525C17.577 13.3428 17.3259 13.0918 17.0163 13.0918H10.2884Z" fill="white"/>
</svg>
