<svg width="20" height="20" viewBox="0 0 20 20" fill="none" xmlns="http://www.w3.org/2000/svg">
<mask id="path-1-inside-1_973_1223" fill="white">
<path d="M14.2379 7.57067C14.3242 7.48431 14.3727 7.36719 14.3727 7.24507C14.3727 7.12295 14.3242 7.00583 14.2379 6.91946L13.0653 5.74692C13.0229 5.70293 12.972 5.66785 12.9158 5.64371C12.8597 5.61958 12.7992 5.60687 12.7381 5.60634C12.6769 5.60581 12.6163 5.61746 12.5597 5.64062C12.5031 5.66377 12.4517 5.69797 12.4084 5.74121C12.3652 5.78445 12.331 5.83587 12.3078 5.89247C12.2847 5.94907 12.273 6.00972 12.2736 6.07087C12.2741 6.13202 12.2868 6.19245 12.3109 6.24864C12.3351 6.30483 12.3701 6.35564 12.4141 6.39813L13.5867 7.57067C13.673 7.65701 13.7902 7.70551 13.9123 7.70551C14.0344 7.70551 14.1515 7.65701 14.2379 7.57067ZM7.98371 13.1718C8.02769 13.2143 8.06278 13.2651 8.08692 13.3213C8.11105 13.3775 8.12376 13.4379 8.12429 13.4991C8.12482 13.5602 8.11317 13.6208 8.09001 13.6774C8.06685 13.734 8.03266 13.7855 7.98942 13.8287C7.94617 13.872 7.89475 13.9061 7.83815 13.9293C7.78156 13.9525 7.72091 13.9641 7.65976 13.9636C7.59861 13.9631 7.53818 13.9503 7.48199 13.9262C7.4258 13.9021 7.37498 13.867 7.3325 13.823L6.16088 12.6514C6.0744 12.565 6.02577 12.4479 6.02568 12.3256C6.0256 12.2034 6.07406 12.0862 6.16042 11.9997C6.24677 11.9132 6.36394 11.8646 6.48616 11.8645C6.60837 11.8644 6.72561 11.9129 6.81209 11.9993L7.98371 13.1718ZM16.6051 3.39539C16.3518 3.14222 16.0084 3 15.6504 3C15.2923 3 14.9489 3.14222 14.6957 3.39539L14.1246 3.96646L13.8989 3.74172C13.721 3.56362 13.5057 3.42723 13.2686 3.34237C13.0316 3.2575 12.7787 3.22628 12.5281 3.25095C12.2776 3.27561 12.0356 3.35556 11.8196 3.48502C11.6037 3.61449 11.4192 3.79024 11.2794 3.99962C10.8374 3.90368 10.3763 3.9534 9.965 4.14136C9.55369 4.32931 9.21429 4.64539 8.99759 5.04231C8.78088 5.43922 8.69851 5.89564 8.76281 6.34327C8.82711 6.79089 9.03462 7.20567 9.35428 7.52554L9.96036 8.13069L8.14674 9.94431L7.54067 9.33823C7.2208 9.01857 6.80602 8.81106 6.35839 8.74676C5.91077 8.68247 5.45435 8.76483 5.05744 8.98154C4.66052 9.19825 4.34444 9.53764 4.15649 9.94895C3.96853 10.3603 3.9188 10.8214 4.01475 11.2633C3.80578 11.4035 3.63042 11.5881 3.50125 11.804C3.37208 12.02 3.29231 12.2618 3.26765 12.5122C3.243 12.7626 3.27408 13.0154 3.35866 13.2524C3.44323 13.4893 3.57922 13.7047 3.75684 13.8829L3.98251 14.1085L3.39578 14.6953C3.14245 14.9485 3.00009 15.2919 3 15.6501C2.99991 16.0083 3.14211 16.3518 3.39532 16.6051C3.64852 16.8585 3.99199 17.0008 4.35016 17.0009C4.70833 17.001 5.05186 16.8588 5.30519 16.6056L5.89284 16.018L6.11759 16.2427C6.29556 16.4208 6.51082 16.5572 6.74786 16.642C6.98491 16.7269 7.23782 16.7581 7.48838 16.7335C7.73895 16.7088 7.98092 16.6288 8.19686 16.4994C8.4128 16.3699 8.59733 16.1942 8.73716 15.9848C9.17908 16.0807 9.64019 16.031 10.0515 15.8431C10.4628 15.6551 10.8022 15.339 11.0189 14.9421C11.2356 14.5452 11.318 14.0888 11.2537 13.6411C11.1894 13.1935 10.9819 12.7787 10.6622 12.4589L10.0562 11.8537L11.8698 10.041L12.4758 10.6462C12.7958 10.9654 13.2105 11.1725 13.6579 11.2366C14.1053 11.3007 14.5614 11.2182 14.9581 11.0016C15.3548 10.785 15.6707 10.4458 15.8586 10.0347C16.0466 9.62368 16.0965 9.16285 16.0008 8.72111C16.2098 8.58096 16.3852 8.39629 16.5143 8.18036C16.6435 7.96443 16.7233 7.72259 16.7479 7.47218C16.7726 7.22178 16.7415 6.96902 16.6569 6.73204C16.5724 6.49507 16.4364 6.27975 16.2587 6.10154L16.0331 5.87679L16.6042 5.30572C16.7296 5.18032 16.8292 5.03142 16.8971 4.86753C16.965 4.70363 17 4.52796 17 4.35055C17 4.17315 16.965 3.99747 16.8971 3.83358C16.8292 3.66969 16.7296 3.52079 16.6042 3.39539H16.6051ZM15.3819 5.22559L14.7749 4.61767L15.3459 4.0466C15.4266 3.96598 15.5359 3.92069 15.6499 3.92069C15.7639 3.92069 15.8733 3.96598 15.9539 4.0466C16.0345 4.12721 16.0798 4.23655 16.0798 4.35055C16.0798 4.46456 16.0345 4.5739 15.9539 4.65451L15.3828 5.22559H15.3819ZM11.2186 9.38889L9.40494 11.2025L8.79795 10.5955L10.6116 8.78282L11.2186 9.38889ZM5.24071 15.3667L4.65398 15.9535C4.57349 16.0341 4.46427 16.0794 4.35035 16.0795C4.23643 16.0796 4.12714 16.0344 4.04653 15.9539C3.96591 15.8734 3.92057 15.7642 3.92049 15.6503C3.9204 15.5364 3.96557 15.4271 4.04606 15.3465L4.63464 14.7597L5.24071 15.3667ZM12.1433 4.39292C12.2159 4.32029 12.302 4.26267 12.3969 4.22336C12.4917 4.18404 12.5933 4.16381 12.696 4.16381C12.7986 4.16381 12.9003 4.18404 12.9951 4.22336C13.0899 4.26267 13.1761 4.32029 13.2486 4.39292L15.6085 6.75275C15.7032 6.84713 15.7721 6.96425 15.8086 7.09289C15.845 7.22153 15.8479 7.35739 15.8168 7.48745C15.7858 7.6175 15.7219 7.73741 15.6312 7.83569C15.5405 7.93396 15.4261 8.00731 15.299 8.04871C15.2373 8.06881 15.1806 8.1017 15.1325 8.14525C15.0844 8.18879 15.046 8.24201 15.02 8.3014C14.9939 8.36079 14.9806 8.42503 14.9811 8.48989C14.9816 8.55476 14.9957 8.6188 15.0226 8.67782C15.1367 8.92773 15.1595 9.20977 15.0868 9.47472C15.0142 9.73968 14.8509 9.97072 14.6253 10.1275C14.3997 10.2843 14.1263 10.357 13.8526 10.3328C13.5789 10.3085 13.3225 10.189 13.128 9.99497L10.0055 6.87341C9.81148 6.6789 9.69194 6.42244 9.66771 6.14878C9.64348 5.87513 9.71611 5.60165 9.87293 5.37608C10.0297 5.15051 10.2608 4.98716 10.5257 4.91454C10.7907 4.84192 11.0727 4.86464 11.3226 4.97873C11.3817 5.00582 11.4458 5.02011 11.5108 5.02065C11.5758 5.0212 11.6401 5.00799 11.6996 4.98189C11.7591 4.95579 11.8124 4.91739 11.8561 4.86923C11.8997 4.82106 11.9326 4.76421 11.9527 4.70241C11.9908 4.5856 12.0562 4.47952 12.1433 4.39292ZM5.23242 9.98944C5.45231 9.76963 5.75049 9.64615 6.0614 9.64615C6.37231 9.64615 6.6705 9.76963 6.89038 9.98944L10.0119 13.111C10.2059 13.3055 10.3255 13.562 10.3497 13.8356C10.3739 14.1093 10.3013 14.3828 10.1445 14.6083C9.98769 14.8339 9.75665 14.9973 9.49169 15.0699C9.22674 15.1425 8.9447 15.1198 8.69479 15.0057C8.63573 14.9786 8.5716 14.9643 8.50663 14.9638C8.44165 14.9632 8.3773 14.9764 8.31779 15.0025C8.25829 15.0286 8.20498 15.067 8.16137 15.1152C8.11776 15.1634 8.08484 15.2202 8.06476 15.282C8.02329 15.409 7.94994 15.5232 7.85174 15.6137C7.75354 15.7043 7.63376 15.7681 7.50384 15.7991C7.37393 15.8302 7.23823 15.8274 7.1097 15.791C6.98117 15.7547 6.86412 15.686 6.76972 15.5915L4.40989 13.2317C4.3154 13.1373 4.24669 13.0202 4.21034 12.8917C4.17398 12.7632 4.17119 12.6274 4.20224 12.4975C4.23328 12.3676 4.29713 12.2478 4.38766 12.1496C4.4782 12.0514 4.59241 11.9781 4.71938 11.9366C4.78118 11.9165 4.83803 11.8836 4.8862 11.84C4.93436 11.7964 4.97276 11.7431 4.99886 11.6836C5.02496 11.6241 5.03817 11.5597 5.03762 11.4948C5.03708 11.4298 5.02279 11.3657 4.9957 11.3066C4.8961 11.0891 4.86539 10.8464 4.9077 10.6109C4.95001 10.3755 5.06332 10.1586 5.23242 9.98944Z"/>
</mask>
<path d="M14.2379 7.57067C14.3242 7.48431 14.3727 7.36719 14.3727 7.24507C14.3727 7.12295 14.3242 7.00583 14.2379 6.91946L13.0653 5.74692C13.0229 5.70293 12.972 5.66785 12.9158 5.64371C12.8597 5.61958 12.7992 5.60687 12.7381 5.60634C12.6769 5.60581 12.6163 5.61746 12.5597 5.64062C12.5031 5.66377 12.4517 5.69797 12.4084 5.74121C12.3652 5.78445 12.331 5.83587 12.3078 5.89247C12.2847 5.94907 12.273 6.00972 12.2736 6.07087C12.2741 6.13202 12.2868 6.19245 12.3109 6.24864C12.3351 6.30483 12.3701 6.35564 12.4141 6.39813L13.5867 7.57067C13.673 7.65701 13.7902 7.70551 13.9123 7.70551C14.0344 7.70551 14.1515 7.65701 14.2379 7.57067ZM7.98371 13.1718C8.02769 13.2143 8.06278 13.2651 8.08692 13.3213C8.11105 13.3775 8.12376 13.4379 8.12429 13.4991C8.12482 13.5602 8.11317 13.6208 8.09001 13.6774C8.06685 13.734 8.03266 13.7855 7.98942 13.8287C7.94617 13.872 7.89475 13.9061 7.83815 13.9293C7.78156 13.9525 7.72091 13.9641 7.65976 13.9636C7.59861 13.9631 7.53818 13.9503 7.48199 13.9262C7.4258 13.9021 7.37498 13.867 7.3325 13.823L6.16088 12.6514C6.0744 12.565 6.02577 12.4479 6.02568 12.3256C6.0256 12.2034 6.07406 12.0862 6.16042 11.9997C6.24677 11.9132 6.36394 11.8646 6.48616 11.8645C6.60837 11.8644 6.72561 11.9129 6.81209 11.9993L7.98371 13.1718ZM16.6051 3.39539C16.3518 3.14222 16.0084 3 15.6504 3C15.2923 3 14.9489 3.14222 14.6957 3.39539L14.1246 3.96646L13.8989 3.74172C13.721 3.56362 13.5057 3.42723 13.2686 3.34237C13.0316 3.2575 12.7787 3.22628 12.5281 3.25095C12.2776 3.27561 12.0356 3.35556 11.8196 3.48502C11.6037 3.61449 11.4192 3.79024 11.2794 3.99962C10.8374 3.90368 10.3763 3.9534 9.965 4.14136C9.55369 4.32931 9.21429 4.64539 8.99759 5.04231C8.78088 5.43922 8.69851 5.89564 8.76281 6.34327C8.82711 6.79089 9.03462 7.20567 9.35428 7.52554L9.96036 8.13069L8.14674 9.94431L7.54067 9.33823C7.2208 9.01857 6.80602 8.81106 6.35839 8.74676C5.91077 8.68247 5.45435 8.76483 5.05744 8.98154C4.66052 9.19825 4.34444 9.53764 4.15649 9.94895C3.96853 10.3603 3.9188 10.8214 4.01475 11.2633C3.80578 11.4035 3.63042 11.5881 3.50125 11.804C3.37208 12.02 3.29231 12.2618 3.26765 12.5122C3.243 12.7626 3.27408 13.0154 3.35866 13.2524C3.44323 13.4893 3.57922 13.7047 3.75684 13.8829L3.98251 14.1085L3.39578 14.6953C3.14245 14.9485 3.00009 15.2919 3 15.6501C2.99991 16.0083 3.14211 16.3518 3.39532 16.6051C3.64852 16.8585 3.99199 17.0008 4.35016 17.0009C4.70833 17.001 5.05186 16.8588 5.30519 16.6056L5.89284 16.018L6.11759 16.2427C6.29556 16.4208 6.51082 16.5572 6.74786 16.642C6.98491 16.7269 7.23782 16.7581 7.48838 16.7335C7.73895 16.7088 7.98092 16.6288 8.19686 16.4994C8.4128 16.3699 8.59733 16.1942 8.73716 15.9848C9.17908 16.0807 9.64019 16.031 10.0515 15.8431C10.4628 15.6551 10.8022 15.339 11.0189 14.9421C11.2356 14.5452 11.318 14.0888 11.2537 13.6411C11.1894 13.1935 10.9819 12.7787 10.6622 12.4589L10.0562 11.8537L11.8698 10.041L12.4758 10.6462C12.7958 10.9654 13.2105 11.1725 13.6579 11.2366C14.1053 11.3007 14.5614 11.2182 14.9581 11.0016C15.3548 10.785 15.6707 10.4458 15.8586 10.0347C16.0466 9.62368 16.0965 9.16285 16.0008 8.72111C16.2098 8.58096 16.3852 8.39629 16.5143 8.18036C16.6435 7.96443 16.7233 7.72259 16.7479 7.47218C16.7726 7.22178 16.7415 6.96902 16.6569 6.73204C16.5724 6.49507 16.4364 6.27975 16.2587 6.10154L16.0331 5.87679L16.6042 5.30572C16.7296 5.18032 16.8292 5.03142 16.8971 4.86753C16.965 4.70363 17 4.52796 17 4.35055C17 4.17315 16.965 3.99747 16.8971 3.83358C16.8292 3.66969 16.7296 3.52079 16.6042 3.39539H16.6051ZM15.3819 5.22559L14.7749 4.61767L15.3459 4.0466C15.4266 3.96598 15.5359 3.92069 15.6499 3.92069C15.7639 3.92069 15.8733 3.96598 15.9539 4.0466C16.0345 4.12721 16.0798 4.23655 16.0798 4.35055C16.0798 4.46456 16.0345 4.5739 15.9539 4.65451L15.3828 5.22559H15.3819ZM11.2186 9.38889L9.40494 11.2025L8.79795 10.5955L10.6116 8.78282L11.2186 9.38889ZM5.24071 15.3667L4.65398 15.9535C4.57349 16.0341 4.46427 16.0794 4.35035 16.0795C4.23643 16.0796 4.12714 16.0344 4.04653 15.9539C3.96591 15.8734 3.92057 15.7642 3.92049 15.6503C3.9204 15.5364 3.96557 15.4271 4.04606 15.3465L4.63464 14.7597L5.24071 15.3667ZM12.1433 4.39292C12.2159 4.32029 12.302 4.26267 12.3969 4.22336C12.4917 4.18404 12.5933 4.16381 12.696 4.16381C12.7986 4.16381 12.9003 4.18404 12.9951 4.22336C13.0899 4.26267 13.1761 4.32029 13.2486 4.39292L15.6085 6.75275C15.7032 6.84713 15.7721 6.96425 15.8086 7.09289C15.845 7.22153 15.8479 7.35739 15.8168 7.48745C15.7858 7.6175 15.7219 7.73741 15.6312 7.83569C15.5405 7.93396 15.4261 8.00731 15.299 8.04871C15.2373 8.06881 15.1806 8.1017 15.1325 8.14525C15.0844 8.18879 15.046 8.24201 15.02 8.3014C14.9939 8.36079 14.9806 8.42503 14.9811 8.48989C14.9816 8.55476 14.9957 8.6188 15.0226 8.67782C15.1367 8.92773 15.1595 9.20977 15.0868 9.47472C15.0142 9.73968 14.8509 9.97072 14.6253 10.1275C14.3997 10.2843 14.1263 10.357 13.8526 10.3328C13.5789 10.3085 13.3225 10.189 13.128 9.99497L10.0055 6.87341C9.81148 6.6789 9.69194 6.42244 9.66771 6.14878C9.64348 5.87513 9.71611 5.60165 9.87293 5.37608C10.0297 5.15051 10.2608 4.98716 10.5257 4.91454C10.7907 4.84192 11.0727 4.86464 11.3226 4.97873C11.3817 5.00582 11.4458 5.02011 11.5108 5.02065C11.5758 5.0212 11.6401 5.00799 11.6996 4.98189C11.7591 4.95579 11.8124 4.91739 11.8561 4.86923C11.8997 4.82106 11.9326 4.76421 11.9527 4.70241C11.9908 4.5856 12.0562 4.47952 12.1433 4.39292ZM5.23242 9.98944C5.45231 9.76963 5.75049 9.64615 6.0614 9.64615C6.37231 9.64615 6.6705 9.76963 6.89038 9.98944L10.0119 13.111C10.2059 13.3055 10.3255 13.562 10.3497 13.8356C10.3739 14.1093 10.3013 14.3828 10.1445 14.6083C9.98769 14.8339 9.75665 14.9973 9.49169 15.0699C9.22674 15.1425 8.9447 15.1198 8.69479 15.0057C8.63573 14.9786 8.5716 14.9643 8.50663 14.9638C8.44165 14.9632 8.3773 14.9764 8.31779 15.0025C8.25829 15.0286 8.20498 15.067 8.16137 15.1152C8.11776 15.1634 8.08484 15.2202 8.06476 15.282C8.02329 15.409 7.94994 15.5232 7.85174 15.6137C7.75354 15.7043 7.63376 15.7681 7.50384 15.7991C7.37393 15.8302 7.23823 15.8274 7.1097 15.791C6.98117 15.7547 6.86412 15.686 6.76972 15.5915L4.40989 13.2317C4.3154 13.1373 4.24669 13.0202 4.21034 12.8917C4.17398 12.7632 4.17119 12.6274 4.20224 12.4975C4.23328 12.3676 4.29713 12.2478 4.38766 12.1496C4.4782 12.0514 4.59241 11.9781 4.71938 11.9366C4.78118 11.9165 4.83803 11.8836 4.8862 11.84C4.93436 11.7964 4.97276 11.7431 4.99886 11.6836C5.02496 11.6241 5.03817 11.5597 5.03762 11.4948C5.03708 11.4298 5.02279 11.3657 4.9957 11.3066C4.8961 11.0891 4.86539 10.8464 4.9077 10.6109C4.95001 10.3755 5.06332 10.1586 5.23242 9.98944Z" fill="white" stroke="white" stroke-width="4" mask="url(#path-1-inside-1_973_1223)"/>
</svg>
