<svg width="20" height="20" viewBox="0 0 20 20" fill="none" xmlns="http://www.w3.org/2000/svg">
<path d="M14.688 15.896L12.125 13.333C11.667 13.6803 11.1703 13.941 10.635 14.115C10.1003 14.2883 9.54133 14.375 8.958 14.375C7.44467 14.375 6.15667 13.8507 5.094 12.802C4.03133 11.7533 3.5 10.472 3.5 8.958C3.5 7.44467 4.03133 6.15667 5.094 5.094C6.15667 4.03133 7.44467 3.5 8.958 3.5C10.472 3.5 11.7533 4.03133 12.802 5.094C13.8507 6.15667 14.375 7.44467 14.375 8.958C14.375 9.54133 14.2917 10.1003 14.125 10.635C13.9583 11.1703 13.6943 11.66 13.333 12.104L15.917 14.708C16.0837 14.8747 16.1633 15.0727 16.156 15.302C16.1493 15.5313 16.0627 15.7293 15.896 15.896C15.7293 16.0627 15.528 16.146 15.292 16.146C15.056 16.146 14.8547 16.0627 14.688 15.896ZM8.958 12.625C9.972 12.625 10.8367 12.2673 11.552 11.552C12.2673 10.8367 12.625 9.972 12.625 8.958C12.625 7.93067 12.2707 7.05567 11.562 6.333C10.854 5.611 9.986 5.25 8.958 5.25C7.93067 5.25 7.05567 5.611 6.333 6.333C5.611 7.05567 5.25 7.93067 5.25 8.958C5.25 9.986 5.611 10.854 6.333 11.562C7.05567 12.2707 7.93067 12.625 8.958 12.625Z" fill="#858686"/>
</svg>
