<svg width="20" height="20" viewBox="0 0 20 20" fill="none" xmlns="http://www.w3.org/2000/svg">
<path d="M7.13807 17.1039C4.19719 15.4464 3.42292 13.8776 3.86559 11.7349C4.19239 10.1527 5.26249 8.86549 5.36509 7.28636C5.8222 8.11822 6.01321 8.71806 6.06428 9.58734C7.51813 7.80609 8.47885 5.34023 8.53574 2.75C8.53574 2.75 12.3225 4.97497 12.571 8.33581C12.8969 7.64308 13.061 6.54287 12.7351 5.82982C13.713 6.5429 19.437 12.8732 11.9597 17.1039C13.3655 14.3666 12.3224 10.6732 9.88154 8.96741C10.0446 9.70088 9.75875 12.4365 8.6789 13.6386C8.97811 11.63 8.39421 10.7807 8.39421 10.7807C8.39421 10.7807 8.19381 11.9058 7.41626 13.0423C6.70622 14.0801 6.21424 15.1815 7.13807 17.1039Z" fill="white"/>
</svg>
