<svg width="20" height="20" viewBox="0 0 20 20" fill="none" xmlns="http://www.w3.org/2000/svg">
<path d="M7 16.6333V10.5333C6.43333 10.3778 5.95844 10.0667 5.57533 9.59999C5.19178 9.13332 5 8.58888 5 7.96665V3.29999H6.33333V7.96665H7V3.29999H8.33333V7.96665H9V3.29999H10.3333V7.96665C10.3333 8.58888 10.1416 9.13332 9.758 9.59999C9.37489 10.0667 8.9 10.3778 8.33333 10.5333V16.6333H7ZM13.6667 16.6333V11.3H11.6667V6.63332C11.6667 5.7111 11.9918 4.9251 12.642 4.27532C13.2918 3.6251 14.0778 3.29999 15 3.29999V16.6333H13.6667Z" fill="white"/>
</svg>
