<svg width="24" height="24" viewBox="0 0 24 24" fill="none" xmlns="http://www.w3.org/2000/svg">
<path d="M6.97502 16.9998H16.6002C16.833 16.9998 16.9998 16.8998 17.1006 16.6998C17.1998 16.4998 17.183 16.3082 17.0502 16.125L14.4498 12.6498C14.333 12.5162 14.183 12.4494 13.9998 12.4494C13.8166 12.4494 13.6666 12.5246 13.5498 12.675L11.0502 16.0254L9.27542 13.6494C9.15862 13.4998 9.00862 13.425 8.82542 13.425C8.64142 13.425 8.49142 13.4998 8.37542 13.6494L6.52502 16.125C6.39142 16.3082 6.37902 16.4998 6.48782 16.6998C6.59582 16.8998 6.75822 16.9998 6.97502 16.9998ZM4.87502 21.075C4.29182 21.075 3.79582 20.871 3.38702 20.463C2.97902 20.0542 2.77502 19.5582 2.77502 18.975V7.57498C2.77502 6.99178 2.97902 6.49578 3.38702 6.08698C3.79582 5.67898 4.29182 5.47498 4.87502 5.47498H18.675C19.2582 5.47498 19.7542 5.67898 20.163 6.08698C20.571 6.49578 20.775 6.99178 20.775 7.57498V18.975C20.775 19.5582 20.571 20.0542 20.163 20.463C19.7542 20.871 19.2582 21.075 18.675 21.075H4.87502Z" fill="white"/>
</svg>
