<svg width="120" height="62" viewBox="0 0 120 62" fill="none" xmlns="http://www.w3.org/2000/svg">
<path fill-rule="evenodd" clip-rule="evenodd" d="M17.9032 5.80646C17.9032 2.59964 20.5029 0 23.7097 0C26.9165 0 29.5161 2.59964 29.5161 5.80645V26.0319C29.6753 26.0161 29.8367 26.008 30 26.008H40.7573L48.4231 8.63239C50.2903 4.40012 56.4233 4.80237 57.7212 9.24279L65.2773 35.0925L70.3226 22.9838H90.4839V5.80646C90.4839 2.59964 93.0835 0 96.2903 0C99.4971 0 102.097 2.59964 102.097 5.80645V56.129C102.097 59.3358 99.4971 61.9355 96.2903 61.9355C93.0835 61.9355 90.4839 59.3358 90.4839 56.129V32.6613H76.7742L69.074 51.1417C67.275 55.4593 61.0476 55.1149 59.7354 50.6257L52.0593 24.3655L47.0653 35.6855H30C29.8367 35.6855 29.6753 35.6774 29.5161 35.6616V56.129C29.5161 59.3358 26.9165 61.9355 23.7097 61.9355C20.5029 61.9355 17.9032 59.3358 17.9032 56.129V5.80646ZM0 19.3548C0 16.148 2.59964 13.5484 5.80645 13.5484C9.01327 13.5484 11.6129 16.148 11.6129 19.3548V42.5806C11.6129 45.7875 9.01327 48.3871 5.80645 48.3871C2.59964 48.3871 0 45.7875 0 42.5806V19.3548ZM113.806 14C110.6 14 108 16.5996 108 19.8065V43.0323C108 46.2391 110.6 48.8387 113.806 48.8387C117.013 48.8387 119.613 46.2391 119.613 43.0323V19.8065C119.613 16.5996 117.013 14 113.806 14Z" fill="#496EF6"/>
</svg>
