<svg width="20" height="20" viewBox="0 0 20 20" fill="none" xmlns="http://www.w3.org/2000/svg">
<path d="M5.8125 14.1665H13.8335C14.0275 14.1665 14.1665 14.0832 14.2505 13.9165C14.3332 13.7498 14.3192 13.5902 14.2085 13.4375L12.0415 10.5415C11.9442 10.4302 11.8192 10.3745 11.6665 10.3745C11.5138 10.3745 11.3888 10.4372 11.2915 10.5625L9.2085 13.3545L7.7295 11.3745C7.63217 11.2498 7.50717 11.1875 7.3545 11.1875C7.20117 11.1875 7.07617 11.2498 6.9795 11.3745L5.4375 13.4375C5.32617 13.5902 5.31583 13.7498 5.4065 13.9165C5.4965 14.0832 5.63183 14.1665 5.8125 14.1665ZM4.0625 17.5625C3.5765 17.5625 3.16317 17.3925 2.8225 17.0525C2.4825 16.7118 2.3125 16.2985 2.3125 15.8125V6.3125C2.3125 5.8265 2.4825 5.41317 2.8225 5.0725C3.16317 4.7325 3.5765 4.5625 4.0625 4.5625H15.5625C16.0485 4.5625 16.4618 4.7325 16.8025 5.0725C17.1425 5.41317 17.3125 5.8265 17.3125 6.3125V15.8125C17.3125 16.2985 17.1425 16.7118 16.8025 17.0525C16.4618 17.3925 16.0485 17.5625 15.5625 17.5625H4.0625Z" fill="#A2A3A3"/>
</svg>
