<svg width="20" height="20" viewBox="0 0 20 20" fill="none" xmlns="http://www.w3.org/2000/svg">
<path d="M15.6504 3C16.0084 3 16.3518 3.14221 16.6051 3.39536C16.7306 3.52075 16.8292 3.66965 16.8971 3.83353C16.965 3.99741 17 4.17307 17 4.35047C17 4.52786 16.965 4.70352 16.8971 4.8674C16.8292 5.03128 16.7296 5.18018 16.6042 5.30557L16.0331 5.8766L16.2587 6.10133C16.4364 6.27953 16.5724 6.49484 16.6569 6.7318C16.7415 6.96876 16.7726 7.2215 16.7479 7.47189C16.7233 7.72228 16.6435 7.96411 16.5143 8.18002C16.3852 8.39594 16.2098 8.58059 16.0008 8.72073C16.0965 9.16244 16.0466 9.62324 15.8586 10.0343C15.6707 10.4453 15.3548 10.7844 14.9581 11.0011C14.5614 11.2177 14.1053 11.3001 13.6579 11.2361C13.2105 11.172 12.7958 10.9649 12.4758 10.6457L11.8698 10.0406L10.0562 11.8531L10.6622 12.4583C10.9819 12.7781 11.1894 13.1929 11.2537 13.6404C11.318 14.088 11.2356 14.5444 11.0189 14.9413C10.8022 15.3382 10.4628 15.6543 10.0515 15.8422C9.64019 16.0302 9.17908 16.0799 8.73716 15.9839C8.59733 16.1933 8.4128 16.369 8.19686 16.4985C7.98092 16.628 7.73895 16.7079 7.48838 16.7326C7.23782 16.7572 6.98491 16.726 6.74786 16.6411C6.51082 16.5563 6.29556 16.4199 6.11759 16.2418L5.89284 16.0171L5.30519 16.6047C5.05186 16.8579 4.70833 17.0001 4.35016 17C3.99199 16.9999 3.64852 16.8576 3.39532 16.6042C3.14211 16.3509 2.99991 16.0074 3 15.6493C3.00009 15.2911 3.14245 14.9477 3.39578 14.6945L3.98251 14.1078L3.75684 13.8822C3.57922 13.704 3.44323 13.4887 3.35866 13.2517C3.27408 13.0147 3.243 12.762 3.26765 12.5116C3.29231 12.2612 3.37208 12.0194 3.50125 11.8035C3.63042 11.5876 3.80578 11.4029 4.01475 11.2628C3.9188 10.8209 3.96853 10.3598 4.15649 9.9485C4.34444 9.53721 4.66052 9.19784 5.05744 8.98115C5.45435 8.76445 5.91077 8.68209 6.35839 8.74639C6.80602 8.81068 7.2208 9.01817 7.54067 9.33782L8.14674 9.94385L9.96036 8.13035L9.35428 7.52524C9.03462 7.20539 8.82711 6.79064 8.76281 6.34305C8.69851 5.89545 8.78088 5.43906 8.99759 5.04218C9.21429 4.64529 9.55369 4.32923 9.965 4.14128C10.3763 3.95334 10.8374 3.90362 11.2794 3.99955C11.4192 3.79019 11.6037 3.61445 11.8196 3.48499C12.0356 3.35554 12.2776 3.2756 12.5281 3.25093C12.7787 3.22626 13.0316 3.25748 13.2686 3.34234C13.5057 3.4272 13.721 3.56359 13.8989 3.74167L14.1246 3.9664L14.6957 3.39536C14.9489 3.14221 15.2923 3 15.6504 3Z" fill="white"/>
</svg>
