<svg width="20" height="20" viewBox="0 0 20 20" fill="none" xmlns="http://www.w3.org/2000/svg">
<path d="M14.6001 7.37999C14.6938 7.28622 14.7465 7.15907 14.7465 7.02649C14.7465 6.89391 14.6938 6.76675 14.6001 6.67299L13.3271 5.39999C13.281 5.35223 13.2258 5.31414 13.1648 5.28794C13.1038 5.26173 13.0382 5.24794 12.9718 5.24736C12.9054 5.24679 12.8396 5.25944 12.7781 5.28458C12.7167 5.30972 12.6608 5.34684 12.6139 5.39379C12.567 5.44074 12.5298 5.49656 12.5047 5.55801C12.4795 5.61946 12.4669 5.6853 12.4675 5.75169C12.4681 5.81808 12.4818 5.88369 12.508 5.94469C12.5343 6.00569 12.5723 6.06086 12.6201 6.10699L13.8931 7.37999C13.9869 7.47372 14.114 7.52638 14.2466 7.52638C14.3792 7.52638 14.5063 7.47372 14.6001 7.37999V7.37999ZM7.8101 13.461C7.85786 13.5071 7.89595 13.5623 7.92215 13.6233C7.94836 13.6843 7.96215 13.7499 7.96273 13.8163C7.9633 13.8827 7.95065 13.9485 7.92551 14.01C7.90037 14.0714 7.86324 14.1272 7.8163 14.1742C7.76935 14.2211 7.71353 14.2583 7.65208 14.2834C7.59063 14.3085 7.52479 14.3212 7.4584 14.3206C7.39201 14.32 7.3264 14.3062 7.2654 14.28C7.2044 14.2538 7.14922 14.2157 7.1031 14.168L5.8311 12.896C5.73721 12.8022 5.68442 12.675 5.68432 12.5423C5.68423 12.4097 5.73685 12.2824 5.8306 12.1885C5.92435 12.0946 6.05156 12.0418 6.18425 12.0417C6.31693 12.0416 6.44421 12.0942 6.5381 12.188L7.8101 13.461ZM17.1701 2.84699C16.8952 2.57213 16.5223 2.41772 16.1336 2.41772C15.7449 2.41772 15.372 2.57213 15.0971 2.84699L14.4771 3.46699L14.2321 3.22299C14.0389 3.02964 13.8052 2.88156 13.5478 2.78942C13.2905 2.69729 13.0159 2.66339 12.7439 2.69017C12.4718 2.71695 12.2091 2.80375 11.9747 2.9443C11.7402 3.08486 11.5399 3.27567 11.3881 3.50299C10.9083 3.39882 10.4077 3.45281 9.96114 3.65687C9.51459 3.86093 9.14612 4.20409 8.91084 4.63501C8.67557 5.06593 8.58615 5.56145 8.65596 6.04742C8.72576 6.5334 8.95105 6.98371 9.2981 7.33099L9.9561 7.98799L7.9871 9.95699L7.3291 9.29899C6.98183 8.95193 6.53151 8.72665 6.04554 8.65684C5.55956 8.58704 5.06404 8.67646 4.63312 8.91173C4.2022 9.147 3.85904 9.51548 3.65498 9.96203C3.45092 10.4086 3.39694 10.9092 3.5011 11.389C3.27422 11.5411 3.08384 11.7416 2.94361 11.9761C2.80337 12.2105 2.71676 12.4731 2.69 12.7449C2.66323 13.0168 2.69697 13.2912 2.7888 13.5485C2.88062 13.8057 3.02825 14.0395 3.2211 14.233L3.4661 14.478L2.8291 15.115C2.55407 15.3899 2.39951 15.7628 2.39941 16.1516C2.39932 16.5405 2.5537 16.9135 2.8286 17.1885C3.1035 17.4635 3.47639 17.6181 3.86525 17.6182C4.2541 17.6183 4.62707 17.4639 4.9021 17.189L5.5401 16.551L5.7841 16.795C5.97732 16.9883 6.21103 17.1364 6.46838 17.2286C6.72573 17.3207 7.00031 17.3546 7.27234 17.3278C7.54437 17.301 7.80707 17.2142 8.04151 17.0737C8.27596 16.9331 8.4763 16.7423 8.6281 16.515C9.10789 16.6191 9.60851 16.5652 10.0551 16.3611C10.5016 16.157 10.8701 15.8139 11.1054 15.383C11.3406 14.952 11.4301 14.4565 11.3602 13.9706C11.2904 13.4846 11.0652 13.0343 10.7181 12.687L10.0601 12.03L12.0291 10.062L12.6871 10.719C13.0345 11.0656 13.4847 11.2905 13.9704 11.36C14.4561 11.4296 14.9514 11.34 15.382 11.1048C15.8127 10.8697 16.1557 10.5014 16.3597 10.0551C16.5638 9.60889 16.6179 9.10858 16.5141 8.62899C16.741 8.47683 16.9314 8.27635 17.0716 8.04191C17.2118 7.80748 17.2984 7.54492 17.3252 7.27306C17.352 7.0012 17.3182 6.72679 17.2264 6.46951C17.1346 6.21223 16.9869 5.97847 16.7941 5.78499L16.5491 5.54099L17.1691 4.92099C17.3053 4.78484 17.4134 4.62318 17.4872 4.44525C17.5609 4.26732 17.5989 4.0766 17.5989 3.88399C17.5989 3.69138 17.5609 3.50066 17.4872 3.32272C17.4134 3.14479 17.3053 2.98313 17.1691 2.84699H17.1701ZM15.8421 4.83399L15.1831 4.17399L15.8031 3.55399C15.8906 3.46647 16.0093 3.4173 16.1331 3.4173C16.2569 3.4173 16.3756 3.46647 16.4631 3.55399C16.5506 3.64151 16.5998 3.76021 16.5998 3.88399C16.5998 4.00776 16.5506 4.12647 16.4631 4.21399L15.8431 4.83399H15.8421ZM11.3221 9.35399L9.3531 11.323L8.6941 10.664L10.6631 8.69599L11.3221 9.35399V9.35399ZM4.8321 15.844L4.1951 16.481C4.10771 16.5685 3.98913 16.6177 3.86545 16.6178C3.74177 16.6179 3.62312 16.5689 3.5356 16.4815C3.44808 16.3941 3.39886 16.2755 3.39876 16.1518C3.39867 16.0282 3.44771 15.9095 3.5351 15.822L4.1741 15.185L4.8321 15.844V15.844ZM12.3261 3.92999C12.4049 3.85113 12.4984 3.78857 12.6013 3.74589C12.7043 3.70321 12.8146 3.68124 12.9261 3.68124C13.0375 3.68124 13.1479 3.70321 13.2509 3.74589C13.3538 3.78857 13.4473 3.85113 13.5261 3.92999L16.0881 6.49199C16.1909 6.59446 16.2657 6.72161 16.3053 6.86128C16.345 7.00094 16.3481 7.14843 16.3143 7.28963C16.2806 7.43083 16.2112 7.56101 16.1128 7.66771C16.0143 7.7744 15.8901 7.85404 15.7521 7.89899C15.6851 7.9208 15.6235 7.95652 15.5713 8.00379C15.5191 8.05107 15.4775 8.10884 15.4492 8.17332C15.4209 8.2378 15.4065 8.30754 15.407 8.37797C15.4075 8.44839 15.4229 8.51792 15.4521 8.58199C15.576 8.85331 15.6006 9.15952 15.5218 9.44717C15.443 9.73482 15.2656 9.98566 15.0207 10.1559C14.7758 10.3262 14.4789 10.405 14.1818 10.3787C13.8847 10.3524 13.6063 10.2226 13.3951 10.012L10.0051 6.62299C9.79447 6.41181 9.66468 6.13338 9.63838 5.83628C9.61208 5.53918 9.69093 5.24227 9.86118 4.99738C10.0314 4.75248 10.2823 4.57514 10.5699 4.49629C10.8576 4.41745 11.1638 4.44212 11.4351 4.56599C11.4992 4.5954 11.5688 4.61091 11.6394 4.6115C11.7099 4.61209 11.7798 4.59774 11.8444 4.56941C11.909 4.54108 11.9669 4.49939 12.0142 4.4471C12.0616 4.3948 12.0973 4.33308 12.1191 4.26599C12.1605 4.13917 12.2315 4.02401 12.3261 3.92999V3.92999ZM4.8231 10.006C5.06182 9.76734 5.38555 9.63328 5.7231 9.63328C6.06065 9.63328 6.38438 9.76734 6.6231 10.006L10.0121 13.395C10.2227 13.6062 10.3525 13.8846 10.3788 14.1817C10.4051 14.4788 10.3263 14.7757 10.156 15.0206C9.98577 15.2655 9.73493 15.4428 9.44728 15.5217C9.15963 15.6005 8.85342 15.5759 8.5821 15.452C8.51798 15.4226 8.44836 15.4071 8.37782 15.4065C8.30728 15.4059 8.23741 15.4202 8.17281 15.4486C8.10821 15.4769 8.05033 15.5186 8.00299 15.5709C7.95564 15.6232 7.91989 15.6849 7.8981 15.752C7.85307 15.8898 7.77344 16.0138 7.66682 16.1121C7.56021 16.2104 7.43017 16.2797 7.28912 16.3134C7.14808 16.3471 7.00075 16.3441 6.86121 16.3046C6.72168 16.2652 6.59459 16.1906 6.4921 16.088L3.9301 13.526C3.82751 13.4235 3.75292 13.2964 3.71345 13.1569C3.67398 13.0173 3.67095 12.87 3.70465 12.729C3.73836 12.5879 3.80767 12.4579 3.90597 12.3513C4.00426 12.2446 4.12826 12.165 4.2661 12.12C4.33319 12.0982 4.39491 12.0624 4.44721 12.0151C4.4995 11.9678 4.54119 11.9099 4.56952 11.8453C4.59786 11.7807 4.6122 11.7108 4.61161 11.6403C4.61102 11.5697 4.59551 11.5001 4.5661 11.436C4.45796 11.1999 4.42462 10.9363 4.47056 10.6807C4.51649 10.4251 4.63951 10.1897 4.8231 10.006V10.006Z" fill="#496EF6"/>
</svg>
