<svg width="24" height="24" viewBox="0 0 24 24" fill="none" xmlns="http://www.w3.org/2000/svg">
<path d="M18.05 9.1H19.2571L18.4036 8.24645L15.0536 4.89645C15.0201 4.86301 15 4.82632 15 4.75C15 4.69128 15.016 4.6411 15.0786 4.57855C15.1411 4.51601 15.1913 4.5 15.25 4.5C15.3087 4.5 15.3589 4.51601 15.4214 4.57855L19.9214 9.07855C19.9561 9.11325 19.9799 9.14996 19.9963 9.19152C20.0155 9.24264 20.025 9.2945 20.025 9.35C20.025 9.4058 20.0154 9.45723 19.9964 9.50738C19.9798 9.55001 19.9559 9.58697 19.9214 9.62145L15.3964 14.1464C15.363 14.1799 15.3263 14.2 15.25 14.2C15.1913 14.2 15.1411 14.184 15.0786 14.1214C15.016 14.0589 15 14.0087 15 13.95C15 13.8913 15.016 13.8411 15.0786 13.7786L18.4036 10.4536L19.2571 9.6H18.05H8.25C7.21811 9.6 6.32406 9.96884 5.59645 10.6964C4.86884 11.4241 4.5 12.3181 4.5 13.35V15.35C4.5 15.4457 4.474 15.4944 4.43446 15.5344C4.39441 15.574 4.34569 15.6 4.25 15.6C4.15365 15.6 4.10577 15.5737 4.06655 15.5344C4.02619 15.4941 4 15.4456 4 15.35V13.35C4 12.165 4.41064 11.1715 5.24155 10.3406C6.07173 9.51038 7.06492 9.1 8.25 9.1H18.05Z" fill="#2B156B" stroke="white"/>
<path fill-rule="evenodd" clip-rule="evenodd" d="M19.8506 15.35C19.4364 15.35 19.1006 15.6858 19.1006 16.1V18.35H4.25C3.83579 18.35 3.5 18.6858 3.5 19.1C3.5 19.5142 3.83579 19.85 4.25 19.85H19.75C19.7669 19.85 19.7837 19.8494 19.8003 19.8483C19.8169 19.8494 19.8337 19.85 19.8506 19.85C20.2648 19.85 20.6006 19.5142 20.6006 19.1V16.1C20.6006 15.6858 20.2648 15.35 19.8506 15.35Z" fill="white"/>
</svg>
