<svg width="20" height="20" viewBox="0 0 20 20" fill="none" xmlns="http://www.w3.org/2000/svg">
<path d="M17.7828 7.43483C16.1439 5.76774 14.5049 4.10001 12.8675 2.43101C12.6416 2.20071 12.3929 2.0229 12.0623 2C11.9163 2 11.7707 2 11.6248 2C11.6126 2.00891 11.6017 2.0229 11.5882 2.0264C11.0451 2.15904 10.7242 2.50639 10.5846 3.05541C10.2318 4.43973 9.36807 5.27629 7.97754 5.5349C7.81474 5.56512 7.69099 5.65195 7.61162 5.80241C7.50351 6.00694 7.3932 6.2102 7.28446 6.41441C7.16759 6.63325 7.1679 6.63325 6.93417 6.5585C6.65731 6.46976 6.40264 6.58522 6.3089 6.8416C6.21547 7.09639 6.33452 7.35404 6.612 7.46219C6.70325 7.49781 6.69575 7.52867 6.657 7.59642C6.59419 7.70552 6.53857 7.8194 6.47701 7.92946C6.41827 8.03411 6.39233 8.19347 6.29265 8.22814C6.20578 8.25836 6.08048 8.17502 5.97205 8.14226C5.95705 8.1378 5.94142 8.13589 5.92642 8.13208C5.68738 8.07069 5.45177 8.20142 5.36865 8.44158C5.29022 8.66837 5.3949 8.9238 5.61113 9.02813C5.66238 9.05294 5.71613 9.07711 5.77112 9.08761C5.84393 9.10161 5.83799 9.13405 5.81018 9.18558C5.73737 9.3195 5.65957 9.45118 5.59707 9.59019C5.5552 9.68339 5.49645 9.70534 5.40271 9.70374C5.06992 9.69834 4.73838 9.7012 4.40746 9.75973C3.07599 9.99575 2.007 11.2716 2.00137 12.6448C1.99887 13.2596 2.00043 13.8748 2.00106 14.4897C2.00168 15.5219 2.74788 16.2818 3.76188 16.2821C5.4752 16.2827 7.18853 16.2751 8.90185 16.2856C9.63055 16.29 10.2321 16.0314 10.7442 15.5085C13.0719 13.1321 15.4045 10.7611 17.7366 8.38909C17.8394 8.28444 17.9353 8.17693 18 8.04365C18 7.95872 18 7.87411 18 7.78918C17.9803 7.63745 17.8828 7.53662 17.7828 7.43483ZM2.93443 13.2689C2.94506 12.8573 2.90506 12.4406 3.05849 12.0452C3.37565 11.229 3.95749 10.7563 4.82306 10.68C5.12804 10.6532 5.43677 10.6647 5.74394 10.6675C5.98142 10.6698 6.14953 10.5756 6.2589 10.3565C6.39795 10.0791 6.55138 9.80935 6.69387 9.53389C6.73668 9.45118 6.77449 9.42065 6.87324 9.45977C7.0801 9.54152 7.29383 9.60546 7.50538 9.67448C7.7913 9.76768 8.0441 9.64776 8.13472 9.37771C8.22033 9.1226 8.08566 8.86908 7.8088 8.76857C7.64319 8.70845 7.47757 8.64833 7.30946 8.59648C7.24009 8.57517 7.21134 8.55863 7.25446 8.48229C7.36477 8.28508 7.47132 8.08564 7.57444 7.88461C7.6085 7.81781 7.6435 7.8124 7.71037 7.83626C7.9541 7.92373 8.20002 8.00484 8.44594 8.085C8.72968 8.17788 8.98528 8.05415 9.07372 7.78441C9.15746 7.52994 9.02122 7.27674 8.74374 7.17718C8.55344 7.10911 8.3622 7.04454 8.17034 6.98092C8.10972 6.96088 8.06722 6.94657 8.1169 6.86673C8.18596 6.7554 8.24783 6.63866 8.30283 6.51938C8.33501 6.4494 8.39157 6.43795 8.45188 6.42172C10.0658 5.98531 11.0786 4.94008 11.497 3.29716C11.5361 3.14384 11.5964 3.02265 11.7563 2.97303C11.9135 2.92468 12.0276 2.99466 12.132 3.10058C13.2513 4.23997 14.3702 5.37904 15.4892 6.51842C15.5036 6.53306 15.5161 6.54896 15.5349 6.57027C14.844 7.27261 14.1549 7.9724 13.4669 8.67314C11.9463 10.2206 10.4255 11.7681 8.90748 13.3182C8.83561 13.3916 8.76499 13.4212 8.66374 13.4209C6.80512 13.418 4.94649 13.4177 3.08786 13.4215C2.96756 13.4225 2.93131 13.3955 2.93443 13.2689ZM16.7916 7.98957C16.7707 8.00484 16.7548 8.02679 16.7363 8.04556C14.5199 10.3014 12.3013 12.5551 10.0899 14.816C9.74523 15.1682 9.34932 15.3326 8.86404 15.3307C7.16665 15.324 5.46958 15.3288 3.77219 15.3275C3.30003 15.3272 2.96131 15.0031 2.936 14.5453C2.92881 14.4152 2.95131 14.3691 3.09786 14.3698C5.03461 14.3761 6.97135 14.372 8.9081 14.3771C9.11715 14.3777 9.27276 14.3068 9.41807 14.1586C11.6026 11.93 13.79 9.7047 15.9767 7.47841C16.0501 7.40334 16.1211 7.32573 16.2026 7.23984C16.4079 7.45074 16.5963 7.64859 16.7904 7.84039C16.8485 7.89765 16.8613 7.93805 16.7916 7.98957Z" fill="#496EF6"/>
<path d="M17.4068 14.2737C16.2159 14.2839 15.0251 14.2779 13.8342 14.2785C13.7723 14.2785 13.7111 14.2737 13.6492 14.2941C13.4164 14.3707 13.2774 14.5918 13.3142 14.8339C13.3489 15.0623 13.5464 15.2312 13.7873 15.2315C14.9938 15.2328 16.2003 15.2261 17.4065 15.2366C17.689 15.2391 17.8846 15.145 17.9989 14.8822C17.9989 14.7973 17.9989 14.7127 17.9989 14.6278C17.8858 14.3641 17.6893 14.2715 17.4068 14.2737Z" fill="#496EF6"/>
<path d="M17.4076 12.3655C16.8363 12.3798 16.2645 12.3693 15.693 12.3699C15.3927 12.3703 15.1868 12.5649 15.1868 12.8464C15.1868 13.1283 15.393 13.3236 15.6927 13.3239C16.2642 13.3245 16.836 13.314 17.4072 13.3283C17.69 13.3353 17.885 13.2364 17.9991 12.974C17.9991 12.8891 17.9991 12.8044 17.9991 12.7195C17.8863 12.4555 17.69 12.3582 17.4076 12.3655Z" fill="#496EF6"/>
</svg>
