<svg width="20" height="20" viewBox="0 0 20 20" fill="none" xmlns="http://www.w3.org/2000/svg">
<path d="M7.98336 16.1175C7.55291 16.1175 7.18681 15.9669 6.88508 15.6658C6.58394 15.364 6.43336 14.9979 6.43336 14.5675V7.14961C6.43336 6.94059 6.47322 6.74071 6.55294 6.54999C6.63324 6.35926 6.7472 6.19009 6.89482 6.04247L10.5298 2.46241C10.776 2.21678 11.053 2.06916 11.3606 2.01956C11.6676 1.97055 11.9505 2.01365 12.2091 2.14887C12.4795 2.29649 12.667 2.52412 12.7715 2.83176C12.876 3.13939 12.8793 3.47154 12.7813 3.82819L12.0984 6.50393H15.992C16.3976 6.50393 16.7572 6.6607 17.0708 6.97424C17.3849 7.28779 17.542 7.64768 17.542 8.05393V9.52953C17.542 9.62814 17.5325 9.72675 17.5136 9.82536C17.4953 9.92338 17.4738 10.0034 17.449 10.0654L15.2347 15.2318C15.1243 15.4904 14.9401 15.7027 14.682 15.8686C14.4234 16.0345 14.1527 16.1175 13.8698 16.1175H7.98336ZM3.46268 16.1175C3.06883 16.1175 2.73344 15.979 2.45651 15.7021C2.18016 15.4251 2.04199 15.09 2.04199 14.6968V7.92461C2.04199 7.53077 2.18016 7.19567 2.45651 6.91933C2.73344 6.64239 3.06883 6.50393 3.46268 6.50393C3.85653 6.50393 4.19162 6.64239 4.46796 6.91933C4.7449 7.19567 4.88336 7.53077 4.88336 7.92461V14.6968C4.88336 15.09 4.7449 15.4251 4.46796 15.7021C4.19162 15.979 3.85653 16.1175 3.46268 16.1175Z" fill="#A2A3A3"/>
</svg>
