<svg width="20" height="20" viewBox="0 0 20 20" fill="none" xmlns="http://www.w3.org/2000/svg">
<path d="M10 17C9.02809 17 8.11747 16.8155 7.26813 16.4465C6.4188 16.0769 5.67991 15.5745 5.05147 14.9392C4.42302 14.3039 3.924 13.5619 3.5544 12.7132C3.1848 11.8639 3 10.9595 3 10C3 9.02809 3.1848 8.11747 3.5544 7.26813C3.924 6.41942 4.42302 5.68053 5.05147 5.05147C5.67991 4.42302 6.4188 3.924 7.26813 3.5544C8.11747 3.1848 9.02809 3 10 3C10.9719 3 11.8825 3.1848 12.7319 3.5544C13.5812 3.924 14.3201 4.42302 14.9485 5.05147C15.577 5.68053 16.076 6.41942 16.4456 7.26813C16.8152 8.11747 17 9.02809 17 10C17 10.9595 16.8152 11.8639 16.4456 12.7132C16.076 13.5619 15.577 14.3039 14.9485 14.9392C14.3201 15.5745 13.5812 16.0769 12.7319 16.4465C11.8825 16.8155 10.9719 17 10 17ZM9.18333 6.98627V10C9.18333 10.1039 9.20293 10.2044 9.24213 10.3015C9.28071 10.3985 9.33889 10.4863 9.41667 10.5647L11.5363 12.6833C11.6918 12.8389 11.8797 12.9201 12.1 12.9269C12.3203 12.9332 12.5147 12.852 12.6833 12.6833C12.8389 12.5278 12.9167 12.3399 12.9167 12.1196C12.9167 11.8993 12.8389 11.7114 12.6833 11.5559L10.8167 9.6892V6.96667C10.8167 6.7464 10.7389 6.55849 10.5833 6.40293C10.4278 6.24738 10.2333 6.1696 10 6.1696C9.77973 6.1696 9.5884 6.2508 9.426 6.4132C9.26422 6.57498 9.18333 6.766 9.18333 6.98627Z" fill="white"/>
</svg>
