<svg width="20" height="20" viewBox="0 0 20 20" fill="none" xmlns="http://www.w3.org/2000/svg">
<path d="M2 7C2 5.89543 2.89543 5 4 5H10C11.1046 5 12 5.89543 12 7V15C12 16.1046 11.1046 17 10 17H4C2.89543 17 2 16.1046 2 15V7Z" fill="#A2A3A3"/>
<path d="M14.5528 8.10557C14.214 8.27497 14 8.62123 14 9V13C14 13.3788 14.214 13.725 14.5528 13.8944L16.5528 14.8944C16.8628 15.0494 17.2309 15.0329 17.5257 14.8507C17.8205 14.6684 18 14.3466 18 14V8C18 7.65342 17.8205 7.33156 17.5257 7.14935C17.2309 6.96714 16.8628 6.95058 16.5528 7.10557L14.5528 8.10557Z" fill="#A2A3A3"/>
</svg>
