<svg width="20" height="20" viewBox="0 0 20 20" fill="none" xmlns="http://www.w3.org/2000/svg">
<path d="M10.042 14.063C11.0973 14.063 11.993 13.688 12.729 12.938C13.465 12.188 13.833 11.2853 13.833 10.23C13.833 9.174 13.465 8.278 12.729 7.542C11.993 6.806 11.0973 6.438 10.042 6.438C8.98667 6.438 8.08367 6.806 7.333 7.542C6.58367 8.278 6.209 9.174 6.209 10.23C6.209 11.2993 6.58033 12.2053 7.323 12.948C8.06633 13.6913 8.97267 14.063 10.042 14.063ZM10.042 12.5C9.41667 12.5 8.882 12.278 8.438 11.834C7.99333 11.3893 7.771 10.8547 7.771 10.23C7.771 9.60467 7.99333 9.07667 8.438 8.646C8.882 8.21533 9.41667 8 10.042 8C10.6667 8 11.1943 8.21533 11.625 8.646C12.0557 9.07667 12.271 9.60467 12.271 10.23C12.271 10.8547 12.0557 11.3893 11.625 11.834C11.1943 12.278 10.6667 12.5 10.042 12.5ZM10.021 16.521C8.07633 16.521 6.30567 16.0073 4.709 14.98C3.11167 13.952 1.91 12.57 1.104 10.834C1.07667 10.7647 1.05233 10.6777 1.031 10.573C1.01033 10.469 1 10.3613 1 10.25C1 10.1393 1.01033 10.032 1.031 9.928C1.05233 9.82333 1.07667 9.73633 1.104 9.667C1.91 7.931 3.115 6.55267 4.719 5.532C6.323 4.51067 8.09033 4 10.021 4C11.9517 4 13.719 4.51067 15.323 5.532C16.927 6.55267 18.132 7.931 18.938 9.667C18.9653 9.73633 18.9897 9.82333 19.011 9.928C19.0317 10.032 19.042 10.1393 19.042 10.25C19.042 10.3613 19.0317 10.469 19.011 10.573C18.9897 10.6777 18.9653 10.7647 18.938 10.834C18.132 12.57 16.9303 13.952 15.333 14.98C13.7363 16.0073 11.9657 16.521 10.021 16.521Z" fill="#A2A3A3"/>
</svg>
