<svg width="24" height="24" viewBox="0 0 24 24" fill="none" xmlns="http://www.w3.org/2000/svg">
<path d="M2.40002 8.4C2.40002 7.07452 3.47454 6 4.80002 6H12C13.3255 6 14.4 7.07452 14.4 8.4V18C14.4 19.3255 13.3255 20.4 12 20.4H4.80002C3.47454 20.4 2.40002 19.3255 2.40002 18V8.4Z" fill="white"/>
<path d="M17.4634 9.72669C17.0568 9.92996 16.8 10.3455 16.8 10.8V15.6C16.8 16.0545 17.0568 16.47 17.4634 16.6733L19.8634 17.8733C20.2354 18.0593 20.6771 18.0394 21.0309 17.8208C21.3847 17.6021 21.6 17.2159 21.6 16.8V9.6C21.6 9.18411 21.3847 8.79787 21.0309 8.57922C20.6771 8.36057 20.2354 8.3407 19.8634 8.52669L17.4634 9.72669Z" fill="white"/>
</svg>
